<?xml version="1.0" encoding="UTF-8"?>
<svg id="Layer_1" xmlns="http://www.w3.org/2000/svg" xmlns:xlink="http://www.w3.org/1999/xlink" version="1.1" viewBox="0 0 77.72 22.21">
  <!-- Generator: Adobe Illustrator 29.0.0, SVG Export Plug-In . SVG Version: 2.1.0 Build 186)  -->
  <defs>
    <style>
      .st0 {
        fill: url(#linear-gradient1);
      }

      .st1 {
        fill: url(#linear-gradient);
      }

      .st2 {
        fill: #fff;
      }
    </style>
    <linearGradient id="linear-gradient" x1="1860.93" y1="19.43" x2="1884.1" y2="19.43" gradientTransform="translate(1895.21) rotate(-180) scale(1 -1)" gradientUnits="userSpaceOnUse">
      <stop offset=".3" stop-color="#fff"/>
      <stop offset="1" stop-color="#fff" stop-opacity="0"/>
    </linearGradient>
    <linearGradient id="linear-gradient1" x1="1872.03" y1="8.33" x2="1895.21" y2="8.33" xlink:href="#linear-gradient"/>
  </defs>
  <g>
    <polygon class="st2" points="77.72 22.21 66.62 11.1 66.62 22.21 77.72 22.21"/>
    <path class="st2" d="M44.41,16.66h23.18v5.55h-23.18"/>
  </g>
  <g>
    <polygon class="st2" points="66.62 11.1 55.51 0 55.51 11.1 66.62 11.1"/>
    <path class="st2" d="M33.31,5.55h23.18v5.55h-23.18"/>
  </g>
  <g>
    <polygon class="st2" points="44.41 22.21 33.31 11.1 33.31 22.21 44.41 22.21"/>
    <path class="st1" d="M11.1,16.65h23.18v5.55H11.1"/>
  </g>
  <g>
    <polygon class="st2" points="33.31 11.1 22.21 0 22.21 11.1 33.31 11.1"/>
    <path class="st0" d="M0,5.55h23.18v5.55H0"/>
  </g>
</svg>