<svg width="148" height="93" viewBox="0 0 148 93" fill="none" xmlns="http://www.w3.org/2000/svg">
<circle cx="74" cy="10.5" r="10.5" fill="white"/>
<rect x="72.5" y="21" width="3" height="10" fill="white"/>
<g filter="url(#filter0_b_2043_1326)">
<rect y="31" width="148" height="62" rx="8" fill="white" fill-opacity="0.9"/>
<path opacity="0.7" d="M43.2617 49.0645V69.3672H39.541V64.3281H35.9375V61.3691H39.541V58.7031H35.9375V55.6855H39.541V49.0645H43.2617ZM35.6738 51.8477V54.8066H20.8496V51.8477H26.5918V49.0059H30.3125V51.8477H35.6738ZM28.4082 55.7441C32.0703 55.7441 34.707 57.9121 34.7363 60.9883C34.707 64.0645 32.0703 66.2031 28.4082 66.2031C24.7754 66.2031 22.1387 64.0645 22.168 60.9883C22.1387 57.9121 24.7754 55.7441 28.4082 55.7441ZM28.4082 58.6445C26.7676 58.6738 25.625 59.4941 25.6543 60.9883C25.625 62.5117 26.7676 63.3613 28.4082 63.3613C30.0195 63.3613 31.1914 62.5117 31.2207 60.9883C31.1914 59.4941 30.0195 58.6738 28.4082 58.6445ZM43.8184 72.2383V75.2266H25.5078V67.6387H29.2871V72.2383H43.8184ZM69.0805 49.0352V75.6953H65.5063V62.3359H63.2504V74.4648H59.7055V66.8184L57.5961 69.6309C55.1205 68.3271 53.5238 66.1152 52.5863 63.3613C51.6928 66.5254 50.1107 69.0889 47.5766 70.5977L45.2621 67.7266C49.3051 65.4414 50.682 60.7246 50.682 55.627V54.7773H46.1703V51.7891H58.3871V54.7773H54.3148V55.627C54.3148 60.2705 55.6918 64.6943 59.7055 66.7598V49.416H63.2504V59.2891H65.5063V49.0352H69.0805ZM85.5617 50.1484C89.634 50.1191 92.593 52.4336 92.593 55.8027C92.593 59.1426 89.634 61.4863 85.5617 61.457C81.4895 61.4863 78.5305 59.1426 78.5598 55.8027C78.5305 52.4336 81.4895 50.1191 85.5617 50.1484ZM85.5617 53.1367C83.5695 53.1367 82.1633 54.1035 82.1633 55.8027C82.1633 57.4727 83.5695 58.4395 85.5617 58.4102C87.6125 58.4395 89.048 57.4727 89.048 55.8027C89.048 54.1035 87.6125 53.1367 85.5617 53.1367ZM99.3312 49.0645V75.6953H95.6398V49.0645H99.3312ZM76.9191 63.0977C81.6359 63.0977 88.3449 62.9805 94.0285 62.1309L94.2629 64.8848C92.0656 65.3242 89.8098 65.6025 87.5832 65.7637V74.9043H83.8625V65.998C81.5187 66.1006 79.3068 66.1152 77.3879 66.1445L76.9191 63.0977ZM124.183 49.0352V75.6953H120.433V49.0352H124.183ZM112.318 57.3848C112.318 61.252 114.515 65.6172 118.939 67.4336L116.918 70.3047C113.885 69.0596 111.717 66.5107 110.502 63.4492C109.315 66.7012 107.132 69.4258 104.027 70.7148L102.035 67.8438C106.429 65.9395 108.597 61.457 108.597 57.3848V56.3594H102.914V53.3711H108.568V49.6211H112.289V53.3711H117.855V56.3594H112.318V57.3848Z" fill="black"/>
</g>
<defs>
<filter id="filter0_b_2043_1326" x="-4" y="27" width="156" height="70" filterUnits="userSpaceOnUse" color-interpolation-filters="sRGB">
<feFlood flood-opacity="0" result="BackgroundImageFix"/>
<feGaussianBlur in="BackgroundImageFix" stdDeviation="2"/>
<feComposite in2="SourceAlpha" operator="in" result="effect1_backgroundBlur_2043_1326"/>
<feBlend mode="normal" in="SourceGraphic" in2="effect1_backgroundBlur_2043_1326" result="shape"/>
</filter>
</defs>
</svg>
