<svg width="888" height="650" viewBox="0 0 888 650" fill="none" xmlns="http://www.w3.org/2000/svg">
<path opacity="0.15" d="M1.81519 18.9498H38.619V37.0872H62.1032V0.812378H576.885V36.2559H602.069V21.9349H886.241V631.617H600.086V617.712H575.921V649.188H64.8805V616.654H37.1454V632.127H1.81519V304.047H16.3251V242.701H1.81519V18.9498Z" fill="white"/>
<path opacity="0.5" d="M119.69 0.982422H576.885V36.426H602.07V22.105H886.242V463.902H696.025V216.157C688.185 216.157 681.818 209.79 681.818 201.949C681.818 209.79 675.451 216.157 667.61 216.157V201.949H160.461V190.292H170.21L192.598 167.903H175.387C175.387 159.609 168.661 152.883 160.367 152.883H159.951V67.3352H150.599V66.8439C150.599 58.5499 143.873 51.8239 135.579 51.8239H135.163V16.437H134.748C126.453 16.437 119.727 9.71106 119.727 1.41696V1.00132" fill="white"/>
<path d="M1.81519 18.9498H38.619V37.0872H62.1032V0.812378H576.885V36.2559H602.069V21.9349H886.241V631.617H600.086V617.712H575.921V649.188H64.8805V616.654H37.1454V632.127H1.81519V304.047H16.3251V242.701H1.81519V18.9498Z" stroke="white" stroke-width="0.85" stroke-miterlimit="10"/>
<path d="M12.6789 560.314H1.77759V632.316H12.6789V560.314Z" stroke="white" stroke-width="0.85" stroke-miterlimit="10"/>
<path d="M59.1372 573.237H51.7122V616.842H59.1372V573.237Z" stroke="white" stroke-width="0.85" stroke-miterlimit="10"/>
<path d="M12.6789 560.314H37.9768V548.563H12.6789V560.314Z" stroke="white" stroke-width="0.85" stroke-miterlimit="10"/>
<path d="M80.2975 548.563H37.9768" stroke="white" stroke-width="0.85" stroke-miterlimit="10"/>
<path d="M80.2974 553.532V543.575" stroke="white" stroke-width="0.85" stroke-miterlimit="10"/>
<path d="M80.2975 487.84H1.77759" stroke="white" stroke-width="0.85" stroke-miterlimit="10"/>
<path d="M135.125 51.8617C143.665 51.8617 150.58 58.7766 150.58 67.3163H210.075V42.8119" stroke="white" stroke-width="0.85" stroke-miterlimit="10"/>
<path d="M81.0532 230.761V191.936H65.9387C65.9387 183.396 72.8536 176.481 81.3933 176.481V121.067L135.144 67.3163V16.437C126.605 16.437 119.69 9.52213 119.69 0.982422" stroke="white" stroke-width="0.85" stroke-miterlimit="10"/>
<path d="M128.267 216.157C136.108 216.157 142.475 209.79 142.475 201.949" stroke="white" stroke-width="0.85" stroke-miterlimit="10"/>
<path d="M1.77759 242.89H37.9769V230.761H128.267V187.741C136.108 187.741 142.475 194.108 142.475 201.949" stroke="white" stroke-width="0.85" stroke-miterlimit="10"/>
<path d="M142.475 201.949C142.475 194.108 148.842 187.741 156.682 187.741V216.157C148.842 216.157 142.475 209.79 142.475 201.949Z" stroke="white" stroke-width="0.85" stroke-miterlimit="10"/>
<path d="M681.761 201.949C681.761 194.108 675.394 187.741 667.553 187.741V216.157C675.394 216.157 681.761 209.79 681.761 201.949Z" stroke="white" stroke-width="0.85" stroke-miterlimit="10"/>
<path d="M681.761 201.949C681.761 194.108 688.128 187.741 695.969 187.741V216.157C688.128 216.157 681.761 209.79 681.761 201.949Z" stroke="white" stroke-width="0.85" stroke-miterlimit="10"/>
<path d="M128.324 438.397C136.164 438.397 142.531 444.764 142.531 452.604" stroke="white" stroke-width="0.85" stroke-miterlimit="10"/>
<path d="M1.81519 411.663H38.0145V423.792H128.305V466.812C136.145 466.812 142.512 460.445 142.512 452.604" stroke="white" stroke-width="0.85" stroke-miterlimit="10"/>
<path d="M142.531 452.604C142.531 460.445 148.898 466.812 156.739 466.812V438.397C148.898 438.397 142.531 444.764 142.531 452.604Z" stroke="white" stroke-width="0.85" stroke-miterlimit="10"/>
<path d="M681.799 452.604C681.799 460.445 675.432 466.812 667.591 466.812V438.397C675.432 438.397 681.799 444.764 681.799 452.604Z" stroke="white" stroke-width="0.85" stroke-miterlimit="10"/>
<path d="M681.799 452.604C681.799 460.445 688.166 466.812 696.006 466.812V438.397C688.166 438.397 681.799 444.764 681.799 452.604Z" stroke="white" stroke-width="0.85" stroke-miterlimit="10"/>
<path d="M81.0532 191.917H92.3135C92.3135 198.737 97.8492 204.273 104.67 204.273" stroke="white" stroke-width="0.85" stroke-miterlimit="10"/>
<path d="M128.267 191.917H117.007C117.007 198.737 111.471 204.273 104.651 204.273" stroke="white" stroke-width="0.85" stroke-miterlimit="10"/>
<path d="M105.425 191.917V230.761" stroke="white" stroke-width="0.85" stroke-miterlimit="10"/>
<path d="M181.451 0.982422V67.2974" stroke="white" stroke-width="0.85" stroke-miterlimit="10"/>
<path d="M159.932 67.2974V168.262" stroke="white" stroke-width="0.85" stroke-miterlimit="10"/>
<path d="M159.932 152.808C168.472 152.808 175.387 159.723 175.387 168.262H210.075V67.3163" stroke="white" stroke-width="0.85" stroke-miterlimit="10"/>
<path d="M277.032 0.982422V168.244H228.741C228.741 160.403 222.374 154.036 214.533 154.036V168.244H210.093" stroke="white" stroke-width="0.85" stroke-miterlimit="10"/>
<path d="M826.766 168.262V87.343" stroke="white" stroke-width="0.85" stroke-miterlimit="10"/>
<path d="M277.032 168.262H809.497C809.497 161.442 815.033 155.906 821.854 155.906V168.262H831.3V155.906C838.121 155.906 843.656 161.442 843.656 168.262H886.204" stroke="white" stroke-width="0.85" stroke-miterlimit="10"/>
<path d="M759.185 87.343H886.185" stroke="white" stroke-width="0.85" stroke-miterlimit="10"/>
<path d="M156.682 201.949H667.553" stroke="white" stroke-width="0.85" stroke-miterlimit="10"/>
<path d="M759.185 168.262V43.9266C766.005 43.9266 771.541 38.3909 771.541 31.5705H759.185V22.1239" stroke="white" stroke-width="0.85" stroke-miterlimit="10"/>
<path d="M826.766 485.667V566.568" stroke="white" stroke-width="0.85" stroke-miterlimit="10"/>
<path d="M886.185 485.667H843.637C843.637 492.488 838.102 498.023 831.281 498.023V485.667H821.835V498.023C815.014 498.023 809.479 492.488 809.479 485.667H184.777V649.377" stroke="white" stroke-width="0.85" stroke-miterlimit="10"/>
<path d="M759.185 566.568H886.185" stroke="white" stroke-width="0.85" stroke-miterlimit="10"/>
<path d="M759.185 485.667V610.003C766.005 610.003 771.541 615.539 771.541 622.359H759.185V631.806" stroke="white" stroke-width="0.85" stroke-miterlimit="10"/>
<path d="M695.969 201.949H763.549V178.616H886.185" stroke="white" stroke-width="0.85" stroke-miterlimit="10"/>
<path d="M788.186 269.662V265.298H802.394C802.394 257.457 796.027 251.09 788.186 251.09V178.616" stroke="white" stroke-width="0.85" stroke-miterlimit="10"/>
<path d="M788.186 269.662V274.026H802.394C802.394 281.867 796.027 288.234 788.186 288.234V360.708" stroke="white" stroke-width="0.85" stroke-miterlimit="10"/>
<path d="M763.549 463.921V414.742C755.709 414.742 749.342 408.375 749.342 400.535H763.549V381.679H749.342C749.342 373.839 755.709 367.472 763.549 367.472V286.005C755.709 286.005 749.342 279.638 749.342 271.797H763.549V252.942H749.342C749.342 245.101 755.709 238.734 763.549 238.734V201.949" stroke="white" stroke-width="0.85" stroke-miterlimit="10"/>
<path d="M886.185 190.273H699.747V201.949" stroke="white" stroke-width="0.85" stroke-miterlimit="10"/>
<path d="M663.775 201.949V190.273H160.461V201.949" stroke="white" stroke-width="0.85" stroke-miterlimit="10"/>
<path d="M156.682 452.604H667.553" stroke="white" stroke-width="0.85" stroke-miterlimit="10"/>
<path d="M663.775 452.604V464.261H160.461V452.604" stroke="white" stroke-width="0.85" stroke-miterlimit="10"/>
<path d="M845.527 178.616V269.662" stroke="white" stroke-width="0.85" stroke-miterlimit="10"/>
<path d="M788.186 269.662H886.185" stroke="white" stroke-width="0.85" stroke-miterlimit="10"/>
<path d="M788.186 385.307V380.943H802.394C802.394 373.102 796.027 366.735 788.186 366.735V294.261" stroke="white" stroke-width="0.85" stroke-miterlimit="10"/>
<path d="M788.186 385.307V389.671H802.394C802.394 397.512 796.027 403.879 788.186 403.879V463.921" stroke="white" stroke-width="0.85" stroke-miterlimit="10"/>
<path d="M788.186 385.307H886.185" stroke="white" stroke-width="0.85" stroke-miterlimit="10"/>
<path d="M695.969 216.157V463.921H886.185" stroke="white" stroke-width="0.85" stroke-miterlimit="10"/>
<path d="M695.969 396.265H749.342V391.466H763.549" stroke="white" stroke-width="0.85" stroke-miterlimit="10"/>
<path d="M695.969 257.57H763.549" stroke="white" stroke-width="0.85" stroke-miterlimit="10"/>
<path d="M695.969 327.097H763.549" stroke="white" stroke-width="0.85" stroke-miterlimit="10"/>
<path d="M128.324 423.792V230.761" stroke="white" stroke-width="0.85" stroke-miterlimit="10"/>
<path d="M108.581 423.792C108.581 415.952 114.948 409.585 122.788 409.585V423.792" stroke="white" stroke-width="0.85" stroke-miterlimit="10"/>
<path d="M94.3728 423.792V409.585C102.213 409.585 108.58 415.952 108.58 423.792" stroke="white" stroke-width="0.85" stroke-miterlimit="10"/>
<path d="M128.324 259.101H164.655" stroke="white" stroke-width="0.85" stroke-miterlimit="10"/>
<path d="M128.324 395.453H164.655" stroke="white" stroke-width="0.85" stroke-miterlimit="10"/>
<path d="M238.395 319.068V336.94" stroke="white" stroke-width="0.85" stroke-miterlimit="10"/>
<path d="M233.993 336.94H242.797V362.597H233.993" stroke="white" stroke-width="0.85" stroke-miterlimit="10"/>
<path d="M208.903 311.435L236.015 344.554" stroke="white" stroke-width="0.85" stroke-miterlimit="10"/>
<path d="M208.903 344.554L236.015 311.435" stroke="white" stroke-width="0.85" stroke-miterlimit="10"/>
<path d="M242.797 311.435H208.903V344.554H242.797" stroke="white" stroke-width="0.85" stroke-miterlimit="10"/>
<path d="M238.395 362.578V380.451" stroke="white" stroke-width="0.85" stroke-miterlimit="10"/>
<path d="M187.176 227.077V428.931H242.797V380.451H233.993" stroke="white" stroke-width="0.85" stroke-miterlimit="10"/>
<path d="M208.903 354.965L236.015 388.084" stroke="white" stroke-width="0.85" stroke-miterlimit="10"/>
<path d="M208.903 388.084L236.015 354.965" stroke="white" stroke-width="0.85" stroke-miterlimit="10"/>
<path d="M242.797 354.965H208.903V388.084H242.797" stroke="white" stroke-width="0.85" stroke-miterlimit="10"/>
<path d="M233.993 293.411H242.797V319.068H233.993" stroke="white" stroke-width="0.85" stroke-miterlimit="10"/>
<path d="M238.395 293.411V275.538" stroke="white" stroke-width="0.85" stroke-miterlimit="10"/>
<path d="M149.579 259.101V227.077H242.797V275.538H233.993" stroke="white" stroke-width="0.85" stroke-miterlimit="10"/>
<path d="M208.903 301.025L236.015 267.924" stroke="white" stroke-width="0.85" stroke-miterlimit="10"/>
<path d="M208.903 267.924L236.015 301.025" stroke="white" stroke-width="0.85" stroke-miterlimit="10"/>
<path d="M242.797 301.025H208.903V267.924H242.797" stroke="white" stroke-width="0.85" stroke-miterlimit="10"/>
<path d="M193.77 306.239H242.797" stroke="white" stroke-width="0.85" stroke-miterlimit="10"/>
<path d="M193.77 349.769H242.797" stroke="white" stroke-width="0.85" stroke-miterlimit="10"/>
<path d="M242.797 262.709H193.77V393.28H242.797" stroke="white" stroke-width="0.85" stroke-miterlimit="10"/>
<path d="M242.797 397.058H193.77V422.13H242.797V397.058Z" stroke="white" stroke-width="0.85" stroke-miterlimit="10"/>
<path d="M242.797 412.57C246.085 412.57 248.749 409.906 248.749 406.618H242.797" stroke="white" stroke-width="0.85" stroke-miterlimit="10"/>
<path d="M193.77 422.13L238.395 397.058" stroke="white" stroke-width="0.85" stroke-miterlimit="10"/>
<path d="M193.77 397.058L238.395 422.13" stroke="white" stroke-width="0.85" stroke-miterlimit="10"/>
<path d="M242.797 233.859H193.77V258.931H242.797V233.859Z" stroke="white" stroke-width="0.85" stroke-miterlimit="10"/>
<path d="M242.797 243.419C246.085 243.419 248.749 246.083 248.749 249.371H242.797" stroke="white" stroke-width="0.85" stroke-miterlimit="10"/>
<path d="M193.77 233.859L238.395 258.931" stroke="white" stroke-width="0.85" stroke-miterlimit="10"/>
<path d="M193.77 258.931L238.395 233.859" stroke="white" stroke-width="0.85" stroke-miterlimit="10"/>
<path d="M301.253 319.068V336.94" stroke="white" stroke-width="0.85" stroke-miterlimit="10"/>
<path d="M305.655 336.94H296.851V362.597H305.655" stroke="white" stroke-width="0.85" stroke-miterlimit="10"/>
<path d="M330.745 311.435L303.633 344.554" stroke="white" stroke-width="0.85" stroke-miterlimit="10"/>
<path d="M330.745 344.554L303.633 311.435" stroke="white" stroke-width="0.85" stroke-miterlimit="10"/>
<path d="M296.851 311.435H330.745V344.554H296.851" stroke="white" stroke-width="0.85" stroke-miterlimit="10"/>
<path d="M301.253 362.578V380.451" stroke="white" stroke-width="0.85" stroke-miterlimit="10"/>
<path d="M305.655 380.451H296.851V428.931H377.014V422.13" stroke="white" stroke-width="0.85" stroke-miterlimit="10"/>
<path d="M330.745 354.965L303.633 388.084" stroke="white" stroke-width="0.85" stroke-miterlimit="10"/>
<path d="M330.745 388.084L303.633 354.965" stroke="white" stroke-width="0.85" stroke-miterlimit="10"/>
<path d="M296.851 354.965H330.745V388.084H296.851" stroke="white" stroke-width="0.85" stroke-miterlimit="10"/>
<path d="M305.655 293.411H296.851V319.068H305.655" stroke="white" stroke-width="0.85" stroke-miterlimit="10"/>
<path d="M301.253 293.411V275.538" stroke="white" stroke-width="0.85" stroke-miterlimit="10"/>
<path d="M305.655 275.538H296.851V227.077H373.028V233.859H363.128V275.538" stroke="white" stroke-width="0.85" stroke-miterlimit="10"/>
<path d="M330.745 301.025L303.633 267.924" stroke="white" stroke-width="0.85" stroke-miterlimit="10"/>
<path d="M330.745 267.924L303.633 301.025" stroke="white" stroke-width="0.85" stroke-miterlimit="10"/>
<path d="M296.851 301.025H330.745V267.924H296.851" stroke="white" stroke-width="0.85" stroke-miterlimit="10"/>
<path d="M345.879 306.239H296.851" stroke="white" stroke-width="0.85" stroke-miterlimit="10"/>
<path d="M345.879 349.769H296.851" stroke="white" stroke-width="0.85" stroke-miterlimit="10"/>
<path d="M296.851 262.709H345.879V393.28H296.851" stroke="white" stroke-width="0.85" stroke-miterlimit="10"/>
<path d="M296.87 422.149H345.897V397.077H296.87V422.149Z" stroke="white" stroke-width="0.85" stroke-miterlimit="10"/>
<path d="M296.851 412.57C293.563 412.57 290.899 409.906 290.899 406.618H296.851" stroke="white" stroke-width="0.85" stroke-miterlimit="10"/>
<path d="M345.879 422.13L301.253 397.058" stroke="white" stroke-width="0.85" stroke-miterlimit="10"/>
<path d="M345.879 397.058L301.253 422.13" stroke="white" stroke-width="0.85" stroke-miterlimit="10"/>
<path d="M296.87 258.931H345.897V233.859H296.87V258.931Z" stroke="white" stroke-width="0.85" stroke-miterlimit="10"/>
<path d="M296.851 243.419C293.563 243.419 290.899 246.083 290.899 249.371H296.851" stroke="white" stroke-width="0.85" stroke-miterlimit="10"/>
<path d="M345.879 233.859L301.253 258.931" stroke="white" stroke-width="0.85" stroke-miterlimit="10"/>
<path d="M345.879 258.931L301.253 233.859" stroke="white" stroke-width="0.85" stroke-miterlimit="10"/>
<path d="M390.712 297.038H370.61V301.025H390.712V297.038Z" stroke="white" stroke-width="0.85" stroke-miterlimit="10"/>
<path d="M390.712 301.025H370.61V305.011H390.712V301.025Z" stroke="white" stroke-width="0.85" stroke-miterlimit="10"/>
<path d="M390.712 305.03H370.61V309.016H390.712V305.03Z" stroke="white" stroke-width="0.85" stroke-miterlimit="10"/>
<path d="M390.712 309.016H370.61V313.003H390.712V309.016Z" stroke="white" stroke-width="0.85" stroke-miterlimit="10"/>
<path d="M390.712 313.022H370.61V317.008H390.712V313.022Z" stroke="white" stroke-width="0.85" stroke-miterlimit="10"/>
<path d="M390.712 317.008H370.61V320.995H390.712V317.008Z" stroke="white" stroke-width="0.85" stroke-miterlimit="10"/>
<path d="M390.712 320.995H370.61V324.981H390.712V320.995Z" stroke="white" stroke-width="0.85" stroke-miterlimit="10"/>
<path d="M390.712 325H370.61V328.986H390.712V325Z" stroke="white" stroke-width="0.85" stroke-miterlimit="10"/>
<path d="M390.712 328.986H370.61V332.973H390.712V328.986Z" stroke="white" stroke-width="0.85" stroke-miterlimit="10"/>
<path d="M390.712 332.992H370.61V336.978H390.712V332.992Z" stroke="white" stroke-width="0.85" stroke-miterlimit="10"/>
<path d="M390.712 336.978H370.61V340.965H390.712V336.978Z" stroke="white" stroke-width="0.85" stroke-miterlimit="10"/>
<path d="M390.712 340.984H370.61V344.97H390.712V340.984Z" stroke="white" stroke-width="0.85" stroke-miterlimit="10"/>
<path d="M370.61 301.025H350.507V305.011H370.61V301.025Z" stroke="white" stroke-width="0.85" stroke-miterlimit="10"/>
<path d="M370.61 305.03H350.507V309.016H370.61V305.03Z" stroke="white" stroke-width="0.85" stroke-miterlimit="10"/>
<path d="M370.61 309.016H350.507V313.003H370.61V309.016Z" stroke="white" stroke-width="0.85" stroke-miterlimit="10"/>
<path d="M370.61 313.022H350.507V317.008H370.61V313.022Z" stroke="white" stroke-width="0.85" stroke-miterlimit="10"/>
<path d="M370.61 317.008H350.507V320.995H370.61V317.008Z" stroke="white" stroke-width="0.85" stroke-miterlimit="10"/>
<path d="M370.61 320.995H350.507V324.981H370.61V320.995Z" stroke="white" stroke-width="0.85" stroke-miterlimit="10"/>
<path d="M370.61 325H350.507V328.986H370.61V325Z" stroke="white" stroke-width="0.85" stroke-miterlimit="10"/>
<path d="M370.61 328.986H350.507V332.973H370.61V328.986Z" stroke="white" stroke-width="0.85" stroke-miterlimit="10"/>
<path d="M370.61 332.992H350.507V336.978H370.61V332.992Z" stroke="white" stroke-width="0.85" stroke-miterlimit="10"/>
<path d="M370.61 336.978H350.507V340.965H370.61V336.978Z" stroke="white" stroke-width="0.85" stroke-miterlimit="10"/>
<path d="M370.61 340.984H350.507V344.97H370.61V340.984Z" stroke="white" stroke-width="0.85" stroke-miterlimit="10"/>
<path d="M370.61 344.97H350.507V348.956H370.61V344.97Z" stroke="white" stroke-width="0.85" stroke-miterlimit="10"/>
<path d="M641.783 305.03H621.681V309.016H641.783V305.03Z" stroke="white" stroke-width="0.85" stroke-miterlimit="10"/>
<path d="M641.783 309.016H621.681V313.003H641.783V309.016Z" stroke="white" stroke-width="0.85" stroke-miterlimit="10"/>
<path d="M641.783 313.022H621.681V317.008H641.783V313.022Z" stroke="white" stroke-width="0.85" stroke-miterlimit="10"/>
<path d="M641.783 317.008H621.681V320.995H641.783V317.008Z" stroke="white" stroke-width="0.85" stroke-miterlimit="10"/>
<path d="M641.783 320.995H621.681V324.981H641.783V320.995Z" stroke="white" stroke-width="0.85" stroke-miterlimit="10"/>
<path d="M641.783 325H621.681V328.986H641.783V325Z" stroke="white" stroke-width="0.85" stroke-miterlimit="10"/>
<path d="M641.783 328.986H621.681V332.973H641.783V328.986Z" stroke="white" stroke-width="0.85" stroke-miterlimit="10"/>
<path d="M641.783 332.992H621.681V336.978H641.783V332.992Z" stroke="white" stroke-width="0.85" stroke-miterlimit="10"/>
<path d="M641.783 336.978H621.681V340.965H641.783V336.978Z" stroke="white" stroke-width="0.85" stroke-miterlimit="10"/>
<path d="M641.783 340.984H621.681V344.97H641.783V340.984Z" stroke="white" stroke-width="0.85" stroke-miterlimit="10"/>
<path d="M641.783 344.97H621.681V348.956H641.783V344.97Z" stroke="white" stroke-width="0.85" stroke-miterlimit="10"/>
<path d="M641.783 348.957H621.681V352.943H641.783V348.957Z" stroke="white" stroke-width="0.85" stroke-miterlimit="10"/>
<path d="M621.699 309.016H601.597V313.003H621.699V309.016Z" stroke="white" stroke-width="0.85" stroke-miterlimit="10"/>
<path d="M621.699 313.022H601.597V317.008H621.699V313.022Z" stroke="white" stroke-width="0.85" stroke-miterlimit="10"/>
<path d="M621.699 317.008H601.597V320.995H621.699V317.008Z" stroke="white" stroke-width="0.85" stroke-miterlimit="10"/>
<path d="M621.699 320.995H601.597V324.981H621.699V320.995Z" stroke="white" stroke-width="0.85" stroke-miterlimit="10"/>
<path d="M621.699 325H601.597V328.986H621.699V325Z" stroke="white" stroke-width="0.85" stroke-miterlimit="10"/>
<path d="M621.699 328.986H601.597V332.973H621.699V328.986Z" stroke="white" stroke-width="0.85" stroke-miterlimit="10"/>
<path d="M621.699 332.992H601.597V336.978H621.699V332.992Z" stroke="white" stroke-width="0.85" stroke-miterlimit="10"/>
<path d="M621.699 336.978H601.597V340.965H621.699V336.978Z" stroke="white" stroke-width="0.85" stroke-miterlimit="10"/>
<path d="M621.699 340.984H601.597V344.97H621.699V340.984Z" stroke="white" stroke-width="0.85" stroke-miterlimit="10"/>
<path d="M621.699 344.97H601.597V348.956H621.699V344.97Z" stroke="white" stroke-width="0.85" stroke-miterlimit="10"/>
<path d="M621.699 348.957H601.597V352.943H621.699V348.957Z" stroke="white" stroke-width="0.85" stroke-miterlimit="10"/>
<path d="M621.699 352.962H601.597V356.948H621.699V352.962Z" stroke="white" stroke-width="0.85" stroke-miterlimit="10"/>
<path d="M363.128 233.859H350.507V422.13H390.693V233.859H387.236V227.077H443.972V428.931H388.029V422.13" stroke="white" stroke-width="0.85" stroke-miterlimit="10"/>
<path d="M377.014 426.192H388.029" stroke="white" stroke-width="0.85" stroke-miterlimit="10"/>
<path d="M387.235 230.119V244.326C379.395 244.326 373.028 237.959 373.028 230.119H387.235Z" stroke="white" stroke-width="0.85" stroke-miterlimit="10"/>
<path d="M464.584 291.578H450.376C450.376 283.737 456.743 277.37 464.584 277.37V291.578Z" stroke="white" stroke-width="0.85" stroke-miterlimit="10"/>
<path d="M464.584 379.072H450.376C450.376 386.913 456.743 393.28 464.584 393.28V379.072Z" stroke="white" stroke-width="0.85" stroke-miterlimit="10"/>
<path d="M387.235 275.538V289.745C379.395 289.745 373.028 283.378 373.028 275.538H387.235Z" stroke="white" stroke-width="0.85" stroke-miterlimit="10"/>
<path d="M350.507 275.538H390.693" stroke="white" stroke-width="0.85" stroke-miterlimit="10"/>
<path d="M350.507 367.717H390.693" stroke="white" stroke-width="0.85" stroke-miterlimit="10"/>
<path d="M443.972 397.058H394.944V422.13H443.972V397.058Z" stroke="white" stroke-width="0.85" stroke-miterlimit="10"/>
<path d="M443.972 412.57C447.259 412.57 449.923 409.906 449.923 406.618H443.972" stroke="white" stroke-width="0.85" stroke-miterlimit="10"/>
<path d="M394.944 422.13L439.569 397.058" stroke="white" stroke-width="0.85" stroke-miterlimit="10"/>
<path d="M394.944 397.058L439.569 422.13" stroke="white" stroke-width="0.85" stroke-miterlimit="10"/>
<path d="M443.972 233.859H394.944V258.931H443.972V233.859Z" stroke="white" stroke-width="0.85" stroke-miterlimit="10"/>
<path d="M443.972 243.419C447.259 243.419 449.923 246.083 449.923 249.371H443.972" stroke="white" stroke-width="0.85" stroke-miterlimit="10"/>
<path d="M394.944 233.859L439.569 258.931" stroke="white" stroke-width="0.85" stroke-miterlimit="10"/>
<path d="M394.944 258.931L439.569 233.859" stroke="white" stroke-width="0.85" stroke-miterlimit="10"/>
<path d="M499.159 422.149H548.186V397.077H499.159V422.149Z" stroke="white" stroke-width="0.85" stroke-miterlimit="10"/>
<path d="M499.14 412.57C495.852 412.57 493.188 409.906 493.188 406.618H499.14" stroke="white" stroke-width="0.85" stroke-miterlimit="10"/>
<path d="M548.186 422.13L503.542 397.058" stroke="white" stroke-width="0.85" stroke-miterlimit="10"/>
<path d="M548.186 397.058L503.542 422.13" stroke="white" stroke-width="0.85" stroke-miterlimit="10"/>
<path d="M499.159 258.931H548.186V233.859H499.159V258.931Z" stroke="white" stroke-width="0.85" stroke-miterlimit="10"/>
<path d="M499.14 243.419C495.852 243.419 493.188 246.083 493.188 249.371H499.14" stroke="white" stroke-width="0.85" stroke-miterlimit="10"/>
<path d="M548.186 233.859L503.542 258.931" stroke="white" stroke-width="0.85" stroke-miterlimit="10"/>
<path d="M548.186 258.931L503.542 233.859" stroke="white" stroke-width="0.85" stroke-miterlimit="10"/>
<path d="M499.14 227.077V428.931" stroke="white" stroke-width="0.85" stroke-miterlimit="10"/>
<path d="M443.972 295.98H464.565V243.419C469.836 243.419 474.125 239.149 474.125 233.859H464.565V227.058H554.988V428.912H464.565V420.769H474.125C474.125 415.498 469.855 411.209 464.565 411.209V374.103H443.972" stroke="white" stroke-width="0.85" stroke-miterlimit="10"/>
<path d="M59.1372 573.237H104.953C104.953 581.078 111.32 587.445 119.161 587.445V573.237H166.299C166.299 581.078 172.666 587.445 180.507 587.445V573.237H184.777" stroke="white" stroke-width="0.85" stroke-miterlimit="10"/>
<path d="M123.43 649.376V573.237" stroke="white" stroke-width="0.85" stroke-miterlimit="10"/>
<path d="M80.2975 423.792V468.645C72.4568 468.645 66.0898 475.012 66.0898 482.852H80.2975V529.367C72.4568 529.367 66.0898 535.734 66.0898 543.575H82.9614" stroke="white" stroke-width="0.85" stroke-miterlimit="10"/>
<path d="M82.9613 482.852H77.5012" stroke="white" stroke-width="0.85" stroke-miterlimit="10"/>
<path d="M128.324 462.24H98.8506C98.8506 470.081 92.4836 476.447 84.6429 476.447V462.24H80.3164" stroke="white" stroke-width="0.85" stroke-miterlimit="10"/>
<path d="M80.2975 573.237V567.739C72.4568 567.739 66.0898 561.372 66.0898 553.531H82.9614" stroke="white" stroke-width="0.85" stroke-miterlimit="10"/>
<path d="M184.777 509.529C192.617 509.529 198.984 503.162 198.984 495.322H184.777" stroke="white" stroke-width="0.85" stroke-miterlimit="10"/>
<path d="M277.07 485.667V649.377" stroke="white" stroke-width="0.85" stroke-miterlimit="10"/>
<path d="M575.884 617.901H277.07" stroke="white" stroke-width="0.85" stroke-miterlimit="10"/>
<path d="M662.906 335.92H680.778" stroke="white" stroke-width="0.85" stroke-miterlimit="10"/>
<path d="M680.778 331.518V340.322H695.968" stroke="white" stroke-width="0.85" stroke-miterlimit="10"/>
<path d="M662.906 331.518V340.322H647.734" stroke="white" stroke-width="0.85" stroke-miterlimit="10"/>
<path d="M655.292 306.428L688.411 333.54" stroke="white" stroke-width="0.85" stroke-miterlimit="10"/>
<path d="M688.411 306.428L655.292 333.54" stroke="white" stroke-width="0.85" stroke-miterlimit="10"/>
<path d="M655.292 340.322V306.428H688.411V340.322" stroke="white" stroke-width="0.85" stroke-miterlimit="10"/>
<path d="M695.969 286.005H647.734V403.879H641.783" stroke="white" stroke-width="0.85" stroke-miterlimit="10"/>
<path d="M555.007 425.606H569.139" stroke="white" stroke-width="0.85" stroke-miterlimit="10"/>
<path d="M641.783 286.005H601.597V379.072H641.783V286.005Z" stroke="white" stroke-width="0.85" stroke-miterlimit="10"/>
<path d="M601.597 379.072V420.543H647.734V428.931H569.139V420.543" stroke="white" stroke-width="0.85" stroke-miterlimit="10"/>
<path d="M641.783 379.072V420.543" stroke="white" stroke-width="0.85" stroke-miterlimit="10"/>
<path d="M647.734 388.519H695.969" stroke="white" stroke-width="0.85" stroke-miterlimit="10"/>
<path d="M695.969 420.543H673.448V428.931H695.969V420.543Z" stroke="white" stroke-width="0.85" stroke-miterlimit="10"/>
<path d="M555.007 420.543C555.007 420.807 597.951 420.543 597.951 420.543C597.951 420.543 598.745 233.878 597.951 233.878C597.157 233.878 576.526 233.878 576.526 233.878V227.077H695.969" stroke="white" stroke-width="0.85" stroke-miterlimit="10"/>
<path d="M192.221 168.262L170.286 190.197" stroke="white" stroke-width="0.85" stroke-miterlimit="10"/>
<g clip-path="url(#clip0_2043_2008)">
<path d="M363.392 103.86C359.804 103.86 357.254 101.223 357.254 97.5778C357.254 93.9323 359.818 91.3242 363.392 91.3242C366.965 91.3242 369.501 93.9899 369.501 97.5778C369.501 101.166 367.023 103.86 363.392 103.86ZM363.392 87.6066C359.847 87.6066 356.735 89.4798 354.588 92.7795L351 98.3703H353.421C353.781 103.716 358.233 107.592 363.392 107.592C366.98 107.592 370.063 105.719 372.239 102.39L375.827 96.7709H373.378C373.017 91.4539 368.565 87.5922 363.406 87.5922" fill="white"/>
<path d="M439.199 93.8026L434.458 87.9669H429.833V107.246H433.738V92.7795L439.199 99.5375L444.732 92.7507V107.246H448.637V87.9669H443.983L439.199 93.8026Z" fill="white"/>
<path d="M384.876 97.938H381.893V91.2954H384.876C387.109 91.2954 388.464 92.7075 388.464 94.6239C388.464 96.5403 387.109 97.9236 384.876 97.9236M385.049 87.9669H377.743L375.625 91.2954H377.916V107.246H381.908V101.324H385.107C389.516 101.324 392.426 98.5144 392.426 94.6239C392.426 90.7334 389.53 87.9669 385.049 87.9669Z" fill="white"/>
<path d="M422.369 94.9121L414.905 87.9669H410.942V107.246H414.761V92.6787L422.369 99.8401V107.246H426.173V87.9669H422.369V94.9121Z" fill="white"/>
<path d="M395.294 107.246H407.772V103.86H399.314V99.2061H406.274V95.8487H399.314V91.2954H407.772V87.9669H395.294V107.246Z" fill="white"/>
<path d="M487.009 91.2954V87.9669H474.53V107.246H487.009V103.86H478.507V99.2061H485.496V95.8487H478.507V91.2954H487.009Z" fill="white"/>
<path d="M463.954 87.9669H459.963V107.246H470.15L472.297 103.86H463.954V87.9669Z" fill="white"/>
<path d="M456.303 87.9669H452.311V107.246H456.303V87.9669Z" fill="white"/>
</g>
<line x1="506.655" y1="108.466" x2="527.868" y2="87.2531" stroke="white"/>
<g clip-path="url(#clip1_2043_2008)">
<path d="M560.41 103.86C556.89 103.86 554.37 101.215 554.37 97.5781C554.37 93.941 556.89 91.3251 560.41 91.3251C563.93 91.3251 566.422 93.998 566.422 97.5781C566.422 101.158 563.986 103.86 560.41 103.86ZM560.41 87.6066C556.918 87.6066 553.858 89.4781 551.742 92.7856L548.222 98.3755H550.606C550.958 103.721 555.346 107.603 560.41 107.603C563.93 107.603 566.962 105.731 569.106 102.395L572.626 96.7767H570.214C569.862 91.4634 565.474 87.6066 560.41 87.6066ZM581.538 97.9362H578.614V91.2966H581.538C583.73 91.2966 585.058 92.7002 585.058 94.6286C585.058 96.557 583.73 97.9362 581.538 97.9362ZM581.698 87.9646H574.522L572.434 91.2966H574.682V107.249H578.61V101.325H581.754C586.09 101.325 588.958 98.5139 588.958 94.6327C588.958 90.7515 586.114 87.9646 581.698 87.9646ZM618.398 94.9052L611.058 87.9646H607.158V107.249H610.922V92.6758L618.398 99.8401V107.249H622.134V87.9646H618.398V94.9052ZM591.774 107.249H604.042V103.86H595.726V99.2014H602.578V95.841H595.726V91.2966H604.042V87.9646H591.774V107.249Z" fill="white"/>
<path d="M658.834 94.9053L651.494 87.9647H647.594V107.249H651.358V92.6758L658.834 99.8402V107.249H662.57V87.9647H658.834V94.9053ZM629.666 87.9647H625.738V107.249H635.762L637.874 103.86H629.666V87.9647ZM640.066 107.249H643.994V87.9647H640.066V107.249ZM666.174 107.249H670.102V87.9647H666.174V107.249ZM670.102 94.9053L677.442 87.9647H682.494L670.102 99.8402V94.9093V94.9053ZM670.102 95.3731L682.494 107.249H677.442L670.102 100.304V95.3731Z" fill="white"/>
</g>
<defs>
<clipPath id="clip0_2043_2008">
<rect width="136.009" height="20" fill="white" transform="translate(351 87.6066)"/>
</clipPath>
<clipPath id="clip1_2043_2008">
<rect width="134.272" height="20" fill="white" transform="translate(548.222 87.6066)"/>
</clipPath>
</defs>
</svg>
