<svg width="681" height="100" viewBox="0 0 681 100" fill="none" xmlns="http://www.w3.org/2000/svg">
<g clip-path="url(#clip0_2043_946)">
<path d="M61.9597 81.268C44.0202 81.268 31.268 68.0836 31.268 49.8559C31.268 31.6283 44.0922 18.5879 61.9597 18.5879C79.8271 18.5879 92.5072 31.9165 92.5072 49.8559C92.5072 67.7954 80.1153 81.268 61.9597 81.268ZM61.9597 2.46242e-05C44.2363 2.46242e-05 28.6744 9.36602 17.9395 25.8646L0 53.8185H12.1037C13.9049 80.5476 36.1671 99.928 61.9597 99.928C79.8991 99.928 95.317 90.562 106.196 73.9193L124.135 45.8214H111.888C110.086 19.2363 87.8242 -0.0720215 62.0317 -0.0720215" fill="white"/>
<path d="M440.994 30.9798L417.291 1.80115H394.164V98.1988H413.689V25.8645L440.994 59.6542L468.66 25.7205V98.1988H488.184V1.80115H464.914L440.994 30.9798Z" fill="white"/>
<path d="M169.38 51.6571H154.467V18.4438H169.38C180.548 18.4438 187.32 25.5043 187.32 35.0865C187.32 44.6686 180.548 51.585 169.38 51.585M170.245 1.80115H133.718L123.127 18.4438H134.582V98.1988H154.539V68.5879H170.533C192.579 68.5879 207.133 54.5389 207.133 35.0865C207.133 15.634 192.651 1.80115 170.245 1.80115Z" fill="white"/>
<path d="M356.844 36.5274L319.524 1.80115H299.712V98.1988H318.804V25.3602L356.844 61.1671V98.1988H375.865V1.80115H356.844V36.5274Z" fill="white"/>
<path d="M221.47 98.1988H283.862V81.268H241.571V57.9971H276.369V41.2104H241.571V18.4438H283.862V1.80115H221.47V98.1988Z" fill="white"/>
<path d="M680.043 18.4438V1.80115H617.651V98.1988H680.043V81.268H637.536V57.9971H672.478V41.2104H637.536V18.4438H680.043Z" fill="white"/>
<path d="M564.769 1.80115H544.813V98.1988H595.749L606.484 81.268H564.769V1.80115Z" fill="white"/>
<path d="M526.513 1.80115H506.556V98.1988H526.513V1.80115Z" fill="white"/>
</g>
<defs>
<clipPath id="clip0_2043_946">
<rect width="680.043" height="100" fill="white"/>
</clipPath>
</defs>
</svg>
