<svg width="672" height="100" viewBox="0 0 672 100" fill="none" xmlns="http://www.w3.org/2000/svg">
<g clip-path="url(#clip0_2043_975)">
<path d="M60.94 81.2653C43.34 81.2653 30.74 68.0431 30.74 49.8576C30.74 31.6721 43.34 18.5924 60.94 18.5924C78.54 18.5924 91 31.9569 91 49.8576C91 67.7583 78.82 81.2653 60.94 81.2653ZM60.94 0C43.48 0 28.18 9.3572 17.6 25.895L0 53.8446H11.92C13.68 80.5736 35.62 99.9797 60.94 99.9797C78.54 99.9797 93.7 90.6225 104.42 73.9422L122.02 45.8503H109.96C108.2 19.284 86.26 0 60.94 0ZM166.58 51.6477H151.96V18.45H166.58C177.54 18.45 184.18 25.4679 184.18 35.1098C184.18 44.7518 177.54 51.6477 166.58 51.6477ZM167.38 1.79007H131.5L121.06 18.45H132.3V98.2099H151.94V68.5924H167.66C189.34 68.5924 203.68 54.5362 203.68 35.1302C203.68 15.7242 189.46 1.79007 167.38 1.79007ZM350.88 36.4931L314.18 1.79007H294.68V98.2099H313.5V25.3458L350.88 61.1676V98.2099H369.56V1.79007H350.88V36.4931ZM217.76 98.2099H279.1V81.2653H237.52V57.974H271.78V41.1717H237.52V18.45H279.1V1.79007H217.76V98.2099Z" fill="white"/>
<path d="M553.06 36.4931L516.36 1.7901H496.86V98.2099H515.68V25.3458L553.06 61.1676V98.2099H571.74V1.7901H553.06V36.4931ZM407.22 1.7901H387.58V98.2099H437.7L448.26 81.2653H407.22V1.7901ZM459.22 98.2099H478.86V1.7901H459.22V98.2099ZM589.76 98.2099H609.4V1.7901H589.76V98.2099ZM609.4 36.4931L646.1 1.7901H671.36L609.4 61.1676V36.5135V36.4931ZM609.4 38.8324L671.36 98.2099H646.1L609.4 63.4866V38.8324Z" fill="white"/>
</g>
<defs>
<clipPath id="clip0_2043_975">
<rect width="671.36" height="100" fill="white"/>
</clipPath>
</defs>
</svg>
